<?xml version="1.0" standalone="no"?>
<!DOCTYPE svg PUBLIC "-//W3C//DTD SVG 20010904//EN"
 "http://www.w3.org/TR/2001/REC-SVG-20010904/DTD/svg10.dtd">
<svg version="1.0" xmlns="http://www.w3.org/2000/svg"
 width="512.000000pt" height="512.000000pt" viewBox="0 0 512.000000 512.000000"
 preserveAspectRatio="xMidYMid meet">

<g transform="translate(0.000000,512.000000) scale(0.100000,-0.100000)"
fill="#000000" stroke="none">
<path d="M964 3455 c11 -223 107 -424 259 -541 26 -20 45 -39 43 -42 -3 -2
-26 1 -52 7 -25 7 -49 10 -51 7 -9 -9 27 -103 60 -153 69 -109 133 -161 236
-196 58 -20 67 -26 49 -31 -13 -3 -37 -6 -54 -6 -17 0 -33 -3 -37 -6 -10 -10
21 -62 66 -111 50 -54 102 -82 168 -90 58 -7 62 -17 14 -33 -19 -6 -35 -16
-35 -20 0 -18 57 -62 115 -89 71 -34 143 -45 209 -32 l48 9 -4 -57 -3 -56 205
-5 c198 -5 205 -6 203 -25 -1 -11 -9 -90 -18 -175 -8 -85 -18 -174 -21 -198
-4 -26 -2 -42 4 -42 9 0 165 73 398 186 58 28 51 11 70 191 l6 62 67 3 66 3 9
80 c5 44 10 81 11 83 1 1 33 -12 71 -30 61 -28 79 -32 155 -32 93 1 163 25
234 81 44 35 44 48 0 64 -44 16 -45 29 -1 29 47 0 94 18 142 54 41 30 114 124
114 145 0 6 -17 11 -37 11 -84 0 -88 11 -13 36 82 28 140 67 194 132 42 50
106 178 106 211 0 19 -2 20 -41 6 -23 -8 -48 -15 -55 -15 -20 0 -17 18 4 24
26 9 124 105 161 159 77 113 119 247 127 402 l5 100 -33 -40 c-160 -195 -405
-319 -698 -355 -166 -20 -301 -77 -371 -158 -47 -53 -87 -147 -100 -235 -12
-78 -36 -127 -65 -127 -10 0 -12 10 -9 43 3 23 19 188 36 366 25 267 28 325
17 332 -16 11 -369 12 -383 1 -6 -4 -73 -115 -150 -247 -76 -132 -153 -262
-170 -290 -17 -27 -37 -62 -45 -78 -15 -30 -30 -20 -30 20 0 42 -48 153 -85
199 -78 95 -204 152 -390 174 -289 35 -525 156 -693 356 l-33 39 5 -100z m239
-199 c32 -21 88 -51 125 -67 69 -31 272 -82 377 -94 72 -8 187 -49 235 -84 98
-70 136 -140 155 -282 12 -97 12 -103 -8 -136 -25 -44 -32 -33 -47 68 -16 104
-27 137 -69 192 -66 88 -167 133 -361 161 -58 9 -136 25 -175 36 -38 11 -71
20 -73 20 -9 0 62 -90 95 -121 80 -75 199 -137 306 -159 31 -6 57 -15 57 -19
0 -8 -200 -31 -269 -31 -22 0 -41 -4 -41 -9 0 -16 85 -87 135 -111 43 -21 64
-25 152 -25 57 0 103 -3 103 -7 0 -8 -101 -57 -194 -95 l-48 -20 33 -26 c19
-14 47 -30 62 -36 39 -15 144 -13 192 4 21 8 41 13 42 11 4 -3 -91 -96 -127
-125 -14 -10 -21 -23 -17 -28 5 -4 44 -8 87 -8 l79 0 -20 -21 c-33 -35 -102
-64 -153 -64 -50 0 -136 41 -136 63 0 7 32 27 70 46 39 19 77 42 86 52 15 17
14 17 -32 3 -113 -34 -224 -4 -302 80 -23 25 -42 49 -42 54 0 5 37 14 83 21
45 8 98 21 117 29 l35 16 -45 3 c-155 10 -241 45 -330 134 -45 45 -109 153
-98 165 3 3 32 -4 64 -15 65 -21 192 -41 257 -40 41 0 41 1 -25 19 -74 22
-209 89 -254 126 -136 115 -198 210 -244 370 -32 111 -28 115 43 47 34 -33 89
-77 120 -97z m2887 87 c-31 -151 -127 -306 -251 -405 -50 -41 -190 -108 -267
-128 l-67 -18 45 -1 c70 -1 185 17 257 39 36 11 68 18 71 15 12 -11 -55 -122
-102 -169 -86 -86 -163 -116 -331 -129 l-40 -3 36 -16 c19 -9 72 -22 117 -30
47 -7 82 -17 82 -24 0 -24 -96 -105 -150 -125 -56 -21 -148 -23 -210 -3 -48
15 -5 -20 69 -56 39 -18 71 -40 71 -47 0 -6 -20 -24 -43 -38 -78 -45 -177 -28
-260 45 -21 18 -36 34 -34 36 2 3 20 -3 40 -11 41 -17 124 -20 147 -5 13 9 10
14 -15 33 -39 28 -136 129 -131 134 2 3 19 -3 37 -12 37 -20 131 -31 181 -21
54 10 147 76 107 76 -12 0 -40 12 -156 66 -39 18 -74 37 -76 41 -3 4 43 8 101
8 93 0 113 3 157 25 50 24 135 95 135 111 0 5 -24 9 -52 9 -74 0 -258 22 -258
31 0 9 20 15 75 25 125 20 321 153 375 253 10 20 10 22 -7 18 -82 -24 -192
-47 -263 -57 -245 -33 -367 -132 -391 -314 -12 -88 -35 -160 -56 -178 -15 -12
-16 -9 -10 25 5 32 3 37 -14 37 -23 0 -24 11 -5 48 8 15 19 67 25 115 13 110
44 170 123 241 44 40 75 58 135 79 43 14 98 29 123 32 190 26 367 79 480 143
60 34 166 120 186 150 23 35 27 21 14 -45z m-1517 -38 c-3 -9 -8 -14 -10 -11
-3 3 -2 9 2 15 9 16 15 13 8 -4z m324 -47 c-3 -7 -5 -2 -5 12 0 14 2 19 5 13
2 -7 2 -19 0 -25z m-51 -75 c-4 -49 -21 -218 -37 -378 -16 -159 -29 -302 -29
-317 l0 -28 76 0 76 0 -15 -24 c-9 -13 -21 -70 -28 -130 l-12 -106 -67 0 -68
0 -6 -47 c-3 -27 -8 -82 -12 -123 -3 -41 -10 -82 -15 -91 -4 -9 -54 -40 -111
-69 -57 -28 -108 -62 -115 -73 -12 -21 -12 -21 -13 8 0 52 40 349 50 368 7 12
7 17 -2 17 -7 1 -98 0 -203 0 -164 -1 -192 -3 -208 -18 -19 -16 -19 -16 -14
23 3 22 11 94 18 160 10 92 18 128 34 155 21 33 129 216 350 593 l98 167 130
0 129 0 -6 -87z m31 -125 c-3 -8 -6 -5 -6 6 -1 11 2 17 5 13 3 -3 4 -12 1 -19z
m-10 -80 c-3 -8 -6 -5 -6 6 -1 11 2 17 5 13 3 -3 4 -12 1 -19z"/>
<path d="M2589 2880 c-9 -14 -19 -35 -23 -46 -3 -12 -15 -29 -26 -39 -11 -10
-20 -23 -20 -28 0 -6 -6 -18 -14 -26 -7 -9 -35 -56 -61 -106 -26 -49 -56 -105
-67 -123 -13 -22 -17 -37 -11 -43 5 -5 50 -9 99 -7 l89 3 27 195 c15 107 27
206 25 220 l-2 24 -16 -24z"/>
<path d="M2664 1982 c3 -5 -7 -7 -22 -5 -36 4 -81 -35 -79 -69 l2 -25 45 21
c78 37 90 46 90 66 0 14 -7 20 -21 20 -11 0 -18 -4 -15 -8z"/>
<path d="M2534 1932 c-17 -11 -25 -52 -9 -46 9 4 29 55 21 54 0 0 -6 -4 -12
-8z"/>
</g>
</svg>
